<?xml version="1.0" encoding="UTF-8"?>
<svg xmlns="http://www.w3.org/2000/svg" width="497" height="503">
  <path fill="#006bb3" d="m221.282 4.823 1.952-.02c2.136-.02 4.271-.031 6.407-.041l2.211-.013c3.865-.02 7.73-.035 11.595-.044 3.986-.011 7.971-.046 11.957-.085 3.07-.027 6.139-.035 9.208-.038 1.47-.005 2.938-.017 4.407-.035 2.06-.025 4.12-.024 6.181-.017l3.548-.018c4.632.695 7.899 2.76 10.787 6.446 2.645 5.352 4.115 10.532 5.348 16.331 3.468 17.396 3.468 17.396 14.002 30.894 8.434 5.282 17.947 8.643 27.411 11.579C340 71 340 71 343.114 72.72c3.578 1.587 5.157 1.361 8.886.28 2.154-.93 4.274-1.944 6.36-3.02l1.785-.908a958.243 958.243 0 0 0 5.605-2.885c23.905-12.312 23.905-12.312 30.214-11.041 8.84 3.71 16.123 12.663 22.724 19.354l2.72 2.723C426.475 82.323 431.325 87.54 436 93c2.128 2.377 4.261 4.749 6.398 7.117 2.76 3.245 3.038 5.933 2.986 10.186-.773 5.43-3.525 10.12-6.009 14.947l-3.3 6.664c-1.411 2.8-2.827 5.598-4.248 8.394a484.818 484.818 0 0 0-2.64 5.317l-1.394 2.727c-1.779 5.941.768 11.67 3.078 17.156l.856 2.086c.896 2.18 1.803 4.356 2.71 6.531.606 1.467 1.21 2.935 1.815 4.402a2562.16 2562.16 0 0 0 3.343 8.079C441 190 441 190 441.617 192.73c2.349 3.855 6.369 4.501 10.52 5.829l2.766.944c2.922.996 5.852 1.968 8.785 2.934 2.914.965 5.825 1.934 8.73 2.924 1.807.616 3.62 1.217 5.437 1.8 5.546 1.887 10.368 4.212 14.145 8.839 1.197 3.237 1.139 6.425 1.161 9.85l.03 3.572.012 3.848.017 3.968c.01 2.771.017 5.543.02 8.314.006 3.537.03 7.074.058 10.611.023 3.39.025 6.78.03 10.169l.038 3.83c-.03 11.446-.03 11.446-3.366 16.838-3.406 3.383-6.904 4.972-11.375 6.621-1.234.46-2.467.922-3.738 1.397l-3.887 1.42c-1.265.468-2.529.937-3.793 1.408l-1.887.699c-1.256.468-2.51.94-3.762 1.418-3.041 1.151-6.05 2.174-9.185 3.046-4.827 1.451-8.291 2.503-11.322 6.671-1.593 3.35-2.83 6.671-3.988 10.195a3752.98 3752.98 0 0 1-2.622 7.402l-1.23 3.566c-1.032 2.692-2.115 4.887-3.684 7.286-2.273 3.71-3.863 6.51-3.527 10.871 2.61 8.663 6.945 16.614 11.193 24.564 9.068 17.244 9.068 17.244 8.565 24.053-1.67 5.25-5.868 8.675-9.758 12.383-1.649 1.636-3.288 3.28-4.928 4.925a836.875 836.875 0 0 1-3.406 3.392 173.089 173.089 0 0 0-9.928 10.718c-3.707 4.19-7.726 8.07-11.738 11.965l-1.879 1.934c-3.506 3.392-6.552 5.177-11.514 5.315-10.64-1.016-21.522-8.652-30.926-13.618a560.301 560.301 0 0 0-5.49-2.842l-3.243-1.697c-4.721-1.75-7.083-.456-11.633 1.459a649.678 649.678 0 0 0-4.249 1.976c-.755.35-1.51.698-2.29 1.058a2346.54 2346.54 0 0 0-7.213 3.352 3557.09 3557.09 0 0 1-7.204 3.342c-1.492.69-2.982 1.384-4.471 2.08-3.903 1.809-7.769 3.368-11.888 4.641l-.327 1.963c-.88 3.973-2.147 7.77-3.439 11.627l-.834 2.491c-.583 1.735-1.168 3.469-1.755 5.202a836.558 836.558 0 0 0-1.769 5.304 967.484 967.484 0 0 1-2.58 7.69l-.773 2.378c-1.94 5.623-4.21 10.674-9.79 13.488-3.15.988-5.778 1.125-9.08 1.148l-3.823.038-4.107.007-4.24.02c-2.958.012-5.916.016-8.874.015-3.781 0-7.561.027-11.342.061-2.917.022-5.835.026-8.753.025-1.393.003-2.787.012-4.18.027-10.97.11-10.97.11-15.985-2.075-5.344-5.48-6.967-11.03-8.572-18.28-4.64-20.611-4.64-20.611-17.972-35.933-7.917-4.41-16.456-7.472-25.133-10.021C157 432 157 432 153.828 430.288c-3.37-1.535-4.374-1.49-7.828-.288-2.61 1.126-5.16 2.29-7.715 3.527l-2.222 1.058a2125.111 2125.111 0 0 0-7 3.352 3094.414 3094.414 0 0 1-6.99 3.342 949.8 949.8 0 0 0-4.338 2.08C105.677 449.115 105.677 449.115 99 447c-7.677-5.982-14.493-13.307-21.368-20.183-1.69-1.688-3.389-3.368-5.087-5.047-20.531-20.427-20.531-20.427-20.56-27.59.949-6.864 4.263-12.892 7.265-19.055.58-1.214 1.16-2.43 1.738-3.645 4.635-9.723 4.635-9.723 6.584-13.637l1.412-2.913 1.257-2.532c1.648-5.207-1.17-10.09-3.112-14.93l-.856-2.161c-.9-2.27-1.805-4.539-2.71-6.807l-1.815-4.574A5697.081 5697.081 0 0 0 57 312l-.944-2.846c-1.306-2.665-2.214-3.119-4.958-4.146l-2.421-.936-2.614-.947-2.689-1.027c-4.528-1.718-9.085-3.357-13.644-4.993l-2.537-.916a359.871 359.871 0 0 0-4.747-1.667C15.617 292.102 9.059 289.241 5 283c-.507-2.237-.507-2.237-.68-4.643l-.194-2.67a251.028 251.028 0 0 1-.259-12.394l-.003-2.689c0-1.863.001-3.726.006-5.589.005-2.81 0-5.62-.007-8.431C3.846 218.475 3.846 218.475 8 213c9.228-6.389 21.2-9.296 31.831-12.6 8.58-2.376 8.58-2.376 15.89-7.082 1.082-2.079 1.66-4.055 2.279-6.318a490.92 490.92 0 0 1 2.727-6.547c.969-2.4 1.935-4.8 2.898-7.203.97-2.412 1.941-4.824 2.914-7.234l1.288-3.21C69 160 69 160 70.217 157.999c1.481-3.78.134-7.135-1.337-10.753l-1.392-2.809-1.54-3.145L64.313 138a4529.97 4529.97 0 0 1-3.278-6.738l-1.59-3.268a392.31 392.31 0 0 1-5.195-11.182l-1.36-3.042c-1.035-3.22-1.326-5.407-.89-8.77 2.684-4.912 6.418-8.844 10.25-12.875l1.908-2.017A1366.854 1366.854 0 0 1 81.9 71.87a992.877 992.877 0 0 0 3.17-3.223C96.371 57.117 96.371 57.117 102 55c6.116.331 10.691 1.884 16.148 4.562l2.239 1.065c2.334 1.114 4.661 2.243 6.988 3.373 1.584.759 3.169 1.517 4.754 2.273 9.607 4.595 9.607 4.595 13.871 6.727 6.766.088 12.088-2.08 18-5.125 7.09-3.534 14.2-6.713 21.656-9.403 4.554-1.75 6.178-3.169 8.344-7.472 1.084-2.818 2.008-5.679 2.926-8.555l1.666-5.05c.862-2.634 1.72-5.268 2.566-7.906.824-2.562 1.67-5.115 2.518-7.669l.74-2.361c3.004-8.939 7.141-14.554 16.866-14.636Z"/>
  <path fill="#FFFFFF" d="m302.75 118.5 2.642.015c14.1.378 26.05 7.089 35.69 17.153 5.62 6.833 9.775 14.742 11.918 23.332.182.703.364 1.405.55 2.129 2.658 16.98.134 33.497-9.55 47.871-2.591 3.167-5.323 6.19-8.121 9.176-2.182 2.707-2.182 2.707-1.852 6.054.765 3.066.765 3.066 3.973 4.77 2.11.39 2.11.39 4.375.375l2.273.086c4.186-.82 6.602-3.524 9.196-6.766 4.055-6.293 6.784-12.514 9.113-19.629.853-2.508 1.782-4.744 3.043-7.066 10.552 5.164 17.397 13.878 23 24l1.543 2.594c5.413 10.553 5.058 23.853 2.64 35.258-5.529 15.836-17.223 28.629-32.109 36.117-5.195 2.249-10.47 3.06-16.074 2.031-1.969-1.139-3.599-2.426-5.34-3.883-2.807-1.889-5.418-1.491-8.66-1.117-3.108.676-3.108.676-4.25 3.063-.998 3.91-.944 7.073.25 10.937 2.559 3.537 4.189 4.76 8.375 6 4.245 0 6.804-1.231 10.625-3 2.75-.375 2.75-.375 5 0 2.009 1.564 2.894 2.46 3.388 4.986l.01 2.26.02 2.52-.043 2.671-.03 2.739C353.955 339.982 347.94 353.183 336 365l-1.863 1.965c-9.194 8.996-21.804 12.43-34.332 12.312-12.965-.945-23.128-6.834-31.957-16.086-3.177-3.768-5.727-7.745-7.848-12.191l-.996-2.07c-3.739-8.813-3.57-17.407-3.522-26.787-.005-1.785-.012-3.57-.02-5.355-.019-4.82-.012-9.64 0-14.461.01-5.062.001-10.124-.005-15.186-.007-8.5.002-16.998.022-25.498.021-9.802.014-19.605-.008-29.408-.018-8.44-.02-16.88-.01-25.32.006-5.03.007-10.061-.006-15.092-.012-4.732-.004-9.463.02-14.195.005-1.729.003-3.457-.006-5.186-.077-16.606 3.344-28.798 14.844-41.192 9.093-8.625 20.016-12.844 32.437-12.75Z"/>
  <path fill="#FFFFFF" d="m193.75 118.5 2.941.01c7.762.18 13.567 1.468 20.309 5.49l3.25 1.875L223 128l1.922 1.453c5.46 4.393 9.015 9.262 12.078 15.547l.995 1.843c4.01 8.395 3.576 16.975 3.538 26.053.008 1.8.016 3.602.027 5.404.022 4.87.02 9.74.01 14.61-.005 4.077.002 8.155.01 12.233.017 9.627.013 19.255-.004 28.883-.016 9.903 0 19.806.032 29.71.026 8.527.034 17.055.025 25.582-.005 5.082-.003 10.164.018 15.246.018 4.784.012 9.567-.012 14.351-.005 1.746-.002 3.49.01 5.236.096 14.14-1.652 26.988-11.649 37.849l-2.031 2.305c-5.094 5.47-10.065 8.887-16.969 11.695l-2.105.965c-10.909 4.44-22.679 2.626-33.383-1.356-15.909-7.29-25.436-20.724-31.68-36.574-2.676-8.958-2.541-18.772-1.832-28.035 2-2 2-2 4.059-2.23l2.379.043 2.37.019C153 309 153 309 156 310c4.101.494 8.223.952 11.953-1.047 2.14-1.765 3.8-3.46 5.047-5.953.279-3.204.29-5.37-1.063-8.313C168.96 292.094 166.933 292 163 292c-2.115.825-2.115.825-4.25 1.938-6.32 3.058-12.094 3.162-18.8 1.144-17.05-6.694-27.435-17.7-34.95-34.082-4.221-9.708-3.804-25.397-.375-35.313 1.121-2.421 1.121-2.421 2.375-4.687l1.285-2.516c5.276-9.582 12.65-17.407 21.715-23.484l2 1c.603 1.898 1.131 3.82 1.625 5.75 1.936 6.735 4.907 11.692 8.863 17.375C144 222 144 222 143.855 224.563a89.118 89.118 0 0 1-1.894 4.917c-2.154 5.649-1.867 12.296.539 17.833 2.98 5.19 7.874 8.812 13.5 10.687 1.518.09 3.04.125 4.56.126l2.792.012 3.011.003c2.105.018 4.21.038 6.315.058 3.318.03 6.635.051 9.954.051 3.202.004 6.404.038 9.606.078l2.993-.021c6.515.115 9.092 1.212 13.769 5.693 3.702-.126 6.504-.835 10-2 1.479-3.495 1.261-7.276 1-11-1.702-3.829-3.154-5.45-7-7-2.29-.31-2.29-.31-4.75-.287l-2.842-.04-3.053-.017-3.16-.044c-3.336-.047-6.672-.08-10.007-.112a2879.75 2879.75 0 0 1-13.145-.156l-3.034-.016c-5.353-.076-10.005-.34-15.009-2.328-2.08-3.119-2.58-5.083-2.54-8.809.9-3.658 3.426-5.803 6.106-8.332 1.636-1.722 1.636-1.722 1.407-3.789-1.295-2.754-3.066-4.679-5.098-6.945-11.605-13.77-15.888-29.328-15.05-47.12 1.342-15.386 10.77-28.296 22.175-38.005 9.093-6.572 17.591-9.573 28.75-9.5Z"/>
  <path fill="#006bb3" d="M348.688 233.688c4.007 1.587 6.57 3.356 8.312 7.312.564 4.142-.071 7.505-2.281 11.063-2.599 3.182-4.899 5.342-8.719 6.937-2.332.2-2.332.2-4.933.132l-2.964-.06c-1.051-.028-2.102-.058-3.185-.088-2.234-.035-4.467-.068-6.701-.101-3.516-.062-7.031-.133-10.546-.226a792.715 792.715 0 0 0-10.19-.173l-3.167-.112c-5.183-.037-8.366.123-12.332 3.649l-1.543 1.666C289 265 289 265 285.812 265.187c-4.044-1.707-5.882-4.327-7.812-8.187-.438-3.85-.145-5.726 1.688-9.188 2.867-3.487 4.987-5.564 9.636-6.06 2.944-.08 5.875-.062 8.82-.018 2.226-.002 4.452-.006 6.678-.011 3.496.008 6.991.027 10.487.068 3.383.032 6.765.022 10.148.006l3.142.072c5.583-.056 8.684-.58 12.892-4.4l1.805-1.935C345 234 345 234 348.688 233.688Z"/>
  <path fill="#006bb3" d="M313.066 154.688c4.289 2.222 6.863 4.997 8.934 9.312 0 3.683-.531 5.38-2.75 8.313-2.588 1.94-4.013 2.608-7.25 2.687l-2.438-1.5c-2.517-1.753-2.517-1.753-5.687-1.563-3.062.81-3.062.81-4.531 3.563-1.918 4.996-1.747 9.657-1.696 14.955-.085 4.27-.275 6.052-2.933 9.568-4.081 2.972-5.77 2.684-10.715 1.977-2.838-2.123-3.875-3.29-4.496-6.813.236-12.82 2.326-24.74 11.523-34.292 6.61-5.97 13.027-9.206 22.04-6.208Z"/>
  <path fill="#006bb3" d="M200.063 155.563c8.131 4.576 12.329 11.009 15.937 19.437l1.313 2.938c1.18 5.258 2.106 11.464-.555 16.335-2.11 2.073-3.28 2.412-6.196 2.727l-2.308.313C206 197 206 197 203.777 195.495c-2.372-3.332-2.531-6.472-2.777-10.434-.338-5.42-.888-9.168-5-13.062-3.181-.382-5.125-.437-8 1-6.264.57-6.264.57-8.938-1.5-1.522-3.582-2.092-6.749-1.062-10.5 5.635-6.987 13.819-9.19 22.063-5.438Z"/>
  <path fill="#006bb3" d="M307 321c2.82 1.821 4.503 3.007 6 6 .521 4.83.734 8.742-1.75 13-3.342 2.97-5.15 3.857-9.625 4.438-4.863-.587-6.227-1.961-9.625-5.438-2.556-3.485-2.572-6.78-2-11 4.687-7.26 8.635-8.907 17-7Z"/>
  <path fill="#006bb3" d="M201 321c2.761 1.821 4.521 3.042 6 6 .521 4.83.734 8.742-1.75 13-3.387 3.01-5.118 3.897-9.688 4.313-3.88-.34-5.587-.834-8.562-3.313-2.615-4.058-3.701-7.191-3-12 4.001-7.558 8.757-10.498 17-8Z"/>
</svg>
